<svg width="41" height="59" viewBox="0 0 41 59" fill="none" xmlns="http://www.w3.org/2000/svg">
<path d="M6.91659 1.54801L10.0706 0.540594C13.0226 -0.402396 16.1796 1.12337 17.4447 4.10463L19.9632 10.0437C21.0614 12.6296 20.4523 15.6724 18.458 17.5642L12.9142 22.8297C13.2569 25.9808 14.3141 29.0822 16.0888 32.1337C17.7751 35.0862 20.0366 37.6704 22.7395 39.7333L29.4049 37.5076C31.9293 36.6671 34.6792 37.6364 36.2284 39.9119L39.8363 45.2126C41.6403 47.86 41.3152 51.5089 39.0808 53.7522L36.6852 56.1565C34.3014 58.5491 30.8984 59.4189 27.7473 58.4349C20.3117 56.1155 13.4765 49.2305 7.23873 37.7799C0.992156 26.3118 -1.21011 16.5773 0.626088 8.58822C1.39922 5.22626 3.79477 2.54664 6.92245 1.54801H6.91659Z" fill="white"/>
</svg>
